<?xml version="1.0" standalone="no"?><!DOCTYPE svg PUBLIC "-//W3C//DTD SVG 1.1//EN" "http://www.w3.org/Graphics/SVG/1.1/DTD/svg11.dtd"><svg t="1633779947072" class="icon" viewBox="0 0 1024 1024" version="1.1" xmlns="http://www.w3.org/2000/svg" p-id="2583" xmlns:xlink="http://www.w3.org/1999/xlink" width="200" height="200"><defs><style type="text/css"></style></defs><path d="M134.853824 843.379541a26.653981 26.653981 0 0 1-20.71944-9.83373 510.199055 510.199055 0 0 1-42.353645-59.677018 26.95128 26.95128 0 1 1 45.978404-28.129041 446.805802 446.805802 0 0 0 37.905598 53.399439 27.237144 27.237144 0 0 1-3.533282 38.088551 27.866046 27.866046 0 0 1-17.300504 6.174668z m0 0" p-id="2584"></path><path d="M511.874449 1023.977131a504.481771 504.481771 0 0 1-293.662613-93.546213 27.065626 27.065626 0 0 1-6.483401-37.642603 26.779762 26.779762 0 0 1 37.448215-6.517704 451.50541 451.50541 0 0 0 262.697799 83.598137c251.308968 0 455.850547-205.502083 455.850547-458.01168S763.183417 53.868257 511.874449 53.868257 56.138248 259.484685 56.138248 512.017152a458.423325 458.423325 0 0 0 18.295311 128.764687 26.931841 26.931841 0 1 1-51.672819 15.207977A515.458957 515.458957 0 0 1 2.407206 512.017152C2.407206 229.640459 230.961381 0 512.011664 0s509.547285 229.640459 509.547285 512.017152-228.691389 511.982848-509.6845 511.982848z m0 0" p-id="2585"></path><path d="M796.801051 625.150782H629.044482a16.843121 16.843121 0 0 0 0 33.674807h167.756569a16.843121 16.843121 0 0 0 0-33.674807z m0-134.92792H629.044482a16.843121 16.843121 0 0 0 0 33.674808h167.756569a16.843121 16.843121 0 0 0 0-33.674808z m16.763079-117.959018a16.763079 16.763079 0 0 0-16.763079-16.843121H595.484021a16.843121 16.843121 0 0 0 0 33.686242h201.31703a16.808817 16.808817 0 0 0 16.763079-16.843121zM510.742427 496.191708c21.439818-29.123848 34.303708-66.446283 34.303708-107.107613 0-93.065961-67.566871-168.545554-150.936317-168.545554s-150.936317 75.468159-150.936317 168.545554c0 40.661329 12.909629 77.983764 34.303708 107.107613a100.749992 100.749992 0 0 0-67.955646 95.204225v67.46396c0 55.835003 45.075073 101.115898 100.624211 101.115898h167.745135c55.572008 0 100.624211-45.280895 100.624211-101.115898v-67.46396c0.148649-44.228915-28.392036-81.471307-67.795562-95.204225z m-234.054203-107.027571c0-74.484786 52.59902-134.870747 117.478767-134.870746s117.398725 60.385961 117.398725 134.927919-52.541847 134.92792-117.467333 134.92792-117.410159-60.568914-117.410159-134.985093zM545.091873 650.375442c0 41.873393-36.842183 75.856934-82.3289 75.856934h-137.214834c-45.521021 0-82.3289-33.98354-82.3289-75.856934v-50.563666c0-35.801637 27.019888-65.691602 63.336081-73.650062 24.767277 19.724632 54.965975 31.47937 87.657409 31.47937s62.890132-11.754737 87.645975-31.47937c36.247585 8.004199 63.347515 37.734079 63.347515 73.650062z m0 0" p-id="2586"></path><path d="M134.853824 843.379541a26.653981 26.653981 0 0 1-20.71944-9.83373 510.199055 510.199055 0 0 1-42.353645-59.677018 26.95128 26.95128 0 1 1 45.978404-28.129041 446.805802 446.805802 0 0 0 37.905598 53.399439 27.237144 27.237144 0 0 1-3.533282 38.088551 27.866046 27.866046 0 0 1-17.300504 6.174668z m0 0" p-id="2587"></path><path d="M511.874449 1023.977131a504.481771 504.481771 0 0 1-293.662613-93.546213 27.065626 27.065626 0 0 1-6.483401-37.642603 26.779762 26.779762 0 0 1 37.448215-6.517704 451.50541 451.50541 0 0 0 262.697799 83.598137c251.308968 0 455.850547-205.502083 455.850547-458.01168S763.183417 53.868257 511.874449 53.868257 56.138248 259.484685 56.138248 512.017152a458.423325 458.423325 0 0 0 18.295311 128.764687 26.931841 26.931841 0 1 1-51.672819 15.207977A515.458957 515.458957 0 0 1 2.407206 512.017152C2.407206 229.640459 230.961381 0 512.011664 0s509.547285 229.640459 509.547285 512.017152-228.691389 511.982848-509.6845 511.982848z m0 0" p-id="2588"></path><path d="M806.65765 629.793217H633.09232a17.426284 17.426284 0 0 0 0 34.852568h173.56533a17.426284 17.426284 0 0 0 0-34.852568z m0-139.501747H633.09232a17.426284 17.426284 0 0 0 0 34.852568h173.56533a17.426284 17.426284 0 0 0 0-34.852568z m17.334807-122.029726a17.346242 17.346242 0 0 0-17.334807-17.472022H598.331229a17.426284 17.426284 0 0 0 0 34.852568h208.326421a17.39198 17.39198 0 0 0 17.334807-17.426284z m-313.307203 128.158655c22.183065-30.141525 35.538642-68.744632 35.538642-110.812413 0-96.29051-69.910958-174.377184-156.219088-174.377184s-156.219088 78.086675-156.219089 174.377184c0 42.067781 13.355577 80.670888 35.538642 110.812413a104.226101 104.226101 0 0 0-70.299733 98.485947v69.750874c0 57.75601 46.641609 104.603442 104.12319 104.603441H476.713148c57.493015 0 104.12319-46.881735 104.12319-104.603441v-69.750874c0.160084-45.738278-29.363974-84.284212-70.13965-98.485947z m-242.127009-110.766674c0-77.068998 54.359943-139.501748 121.538039-139.501748s121.457997 62.467053 121.457997 139.501748-54.359943 139.501748-121.538039 139.501747-121.457997-62.53566-121.457997-139.501747zM546.23533 655.932643c0 43.314149-38.122855 78.47545-85.221846 78.475451H319.019c-47.098992 0-85.221846-35.161301-85.221846-78.475451v-52.347459c0-37.048005 27.957522-67.967081 65.531518-76.199971 25.62487 20.399272 56.864114 32.565654 90.68757 32.565654s65.0627-12.166382 90.687571-32.565654c37.493953 8.23289 65.531518 39.083358 65.531517 76.199971z m0 0" p-id="2589"></path></svg>