<?xml version="1.0" standalone="no"?><!DOCTYPE svg PUBLIC "-//W3C//DTD SVG 1.1//EN" "http://www.w3.org/Graphics/SVG/1.1/DTD/svg11.dtd"><svg t="1631187576872" class="icon" viewBox="0 0 1024 1024" version="1.1" xmlns="http://www.w3.org/2000/svg" p-id="10433" xmlns:xlink="http://www.w3.org/1999/xlink" width="200" height="200"><defs><style type="text/css"></style></defs><path d="M682.666667 42.666667a42.666667 42.666667 0 0 1 42.666666 42.666666v128h170.666667a42.666667 42.666667 0 0 1 42.666667 42.666667V853.333333a42.666667 42.666667 0 0 1-42.666667 42.666667H128A42.666667 42.666667 0 0 1 85.333333 853.333333V256a42.666667 42.666667 0 0 1 42.666667-42.666667h170.666667V85.333333A42.666667 42.666667 0 0 1 341.333333 42.666667h341.333334z m-128 341.333333h-85.333334V512H341.333333v85.333333h128v128h85.333334V597.333333H682.666667V512H554.666667V384z m85.333333-256h-256v85.333333h256v-85.333333z" p-id="10434"></path></svg>