<?xml version="1.0" standalone="no"?><!DOCTYPE svg PUBLIC "-//W3C//DTD SVG 1.1//EN" "http://www.w3.org/Graphics/SVG/1.1/DTD/svg11.dtd"><svg t="1630932554706" class="icon" viewBox="0 0 1024 1024" version="1.1" xmlns="http://www.w3.org/2000/svg" p-id="2436" xmlns:xlink="http://www.w3.org/1999/xlink" width="200" height="200"><defs><style type="text/css"></style></defs><path d="M774.144 340.992H238.592A114.688 114.688 0 0 0 123.904 455.68v307.2a114.688 114.688 0 0 0 114.688 114.688h535.552a114.688 114.688 0 0 0 114.688-114.688v-307.2a114.688 114.688 0 0 0-114.688-114.688z m-114.688 295.424h-125.952v126.464a27.136 27.136 0 1 1-54.784 0v-126.976H353.28a27.648 27.648 0 0 1 0-54.784h125.44V454.656a27.136 27.136 0 1 1 54.784 0v126.464h125.44a27.648 27.648 0 0 1 0 54.784zM331.264 229.888h358.4a25.6 25.6 0 0 0 0-51.2h-358.4a25.6 25.6 0 1 0 0 51.2zM228.864 313.856h563.2a25.6 25.6 0 0 0 0-51.2h-563.2a25.6 25.6 0 0 0 0 51.2z" fill="" p-id="2437"></path></svg>