<?xml version="1.0" standalone="no"?><!DOCTYPE svg PUBLIC "-//W3C//DTD SVG 1.1//EN" "http://www.w3.org/Graphics/SVG/1.1/DTD/svg11.dtd"><svg t="1630932205644" class="icon" viewBox="0 0 1024 1024" version="1.1" xmlns="http://www.w3.org/2000/svg" p-id="904" xmlns:xlink="http://www.w3.org/1999/xlink" width="200" height="200"><defs><style type="text/css"></style></defs><path d="M832.075 832.075H178.71c-45.156 0-81.893-36.737-81.893-81.894V195.104h735.257v636.971zM160.818 259.104v491.078c0 9.699 8.194 17.894 17.893 17.894h589.365V259.104H160.818z" fill="" p-id="905"></path><path d="M256.05 328.597h415.032v64H256.05zM488.091 433.891h185.992v64H488.091zM488.091 538.791h185.992v64H488.091zM489.091 641.091h129.494v64H489.091zM256.05 434.094h192.037v269.789H256.05zM891.995 831.721H777.574v-64h94.421V380.599h-95.919v-64h115.919c24.262 0 44 19.101 44 42.579v429.964c0 23.478-19.738 42.579-44 42.579z" fill="" p-id="906"></path></svg>