<?xml version="1.0" standalone="no"?><!DOCTYPE svg PUBLIC "-//W3C//DTD SVG 1.1//EN" "http://www.w3.org/Graphics/SVG/1.1/DTD/svg11.dtd"><svg t="1631187383198" class="icon" viewBox="0 0 1024 1024" version="1.1" xmlns="http://www.w3.org/2000/svg" p-id="7031" xmlns:xlink="http://www.w3.org/1999/xlink" width="200" height="200"><defs><style type="text/css"></style></defs><path d="M512.5 768.5m-30.5 0a30.5 30.5 0 1 0 61 0 30.5 30.5 0 1 0-61 0Z" p-id="7032"></path><path d="M544.6 735c-5.5 0-10-4.5-10-10V230.5c0-9.8-10.1-18-22-18s-22 8.2-22 18V725c0 5.5-4.5 10-10 10s-10-4.5-10-10V230.5c0-21 18.8-38 42-38s42 17.1 42 38V725c0 5.5-4.5 10-10 10z" p-id="7033"></path><path d="M512.6 831.2c-35 0-63.5-28.5-63.5-63.5 0-19.1 8.5-37 23.2-49.1 4.3-3.5 10.6-2.9 14.1 1.4s2.9 10.6-1.4 14.1c-10.1 8.3-15.9 20.6-15.9 33.6 0 24 19.5 43.5 43.5 43.5s43.5-19.5 43.5-43.5c0-13.5-6.1-26-16.8-34.3-4.4-3.4-5.1-9.7-1.7-14 3.4-4.4 9.7-5.1 14-1.7 15.6 12.1 24.5 30.4 24.5 50.1 0 34.9-28.5 63.4-63.5 63.4z" p-id="7034"></path><path d="M512.5 759.5c-2.8 0-5-2.2-5-5l-0.4-220c0-2.8 2.2-5 5-5s5 2.2 5 5l0.4 220c0 2.8-2.2 5-5 5z" p-id="7035"></path></svg>